<?xml version="1.0" standalone="no"?>
<!DOCTYPE svg PUBLIC "-//W3C//DTD SVG 20010904//EN"
 "http://www.w3.org/TR/2001/REC-SVG-20010904/DTD/svg10.dtd">
<svg version="1.0" xmlns="http://www.w3.org/2000/svg"
 width="466.000000pt" height="466.000000pt" viewBox="0 0 466.000000 466.000000"
 preserveAspectRatio="xMidYMid meet">
<metadata>
Created by potrace 1.14, written by Peter Selinger 2001-2017
</metadata>
<g transform="translate(0.000000,466.000000) scale(0.100000,-0.100000)"
fill="#000000" stroke="none">
<path d="M3660 3895 c-3 -20 -9 -49 -16 -74 -4 -14 -8 -30 -8 -34 -1 -5 -9
-14 -18 -21 -10 -7 -16 -15 -13 -17 2 -3 -18 -29 -46 -59 -27 -30 -52 -66 -56
-80 -3 -14 -12 -31 -19 -38 -7 -7 -11 -21 -9 -32 2 -11 -1 -19 -8 -17 -6 1
-12 -5 -13 -13 0 -8 -2 -18 -4 -22 -1 -5 -3 -11 -5 -15 -11 -40 -36 -73 -55
-73 -6 0 -8 -6 -4 -12 4 -7 4 -10 -1 -6 -4 4 -15 3 -25 -2 -21 -11 -36 5 -74
84 -29 60 -98 138 -126 144 -8 2 -20 10 -26 17 -6 8 -13 12 -16 10 -3 -3 -21
2 -41 10 -21 8 -37 12 -37 9 0 -4 -6 -2 -12 3 -12 9 -127 10 -153 2 -12 -4
-91 36 -100 51 -4 6 -11 8 -16 5 -5 -4 -9 -1 -9 5 0 6 -4 8 -10 5 -5 -3 -10
-1 -10 5 0 6 -4 9 -9 6 -5 -3 -14 1 -21 10 -7 8 -19 13 -27 10 -7 -3 -13 -2
-13 3 0 14 -81 5 -91 -10 -5 -8 -9 -10 -9 -5 0 5 -6 4 -12 -1 -22 -15 -69 -15
-87 1 -22 20 -134 70 -125 55 4 -8 1 -8 -13 -1 -19 11 -126 9 -177 -2 -16 -4
-45 -14 -65 -22 -20 -8 -38 -14 -40 -14 -2 1 -7 -2 -10 -7 -3 -5 -24 -17 -46
-28 -22 -10 -46 -24 -53 -32 -8 -7 -18 -11 -23 -8 -5 4 -9 1 -9 -6 0 -7 -3
-10 -6 -6 -3 3 -15 -3 -27 -14 -11 -10 -27 -19 -34 -19 -7 0 -13 -4 -13 -9 0
-5 -13 -12 -29 -16 -16 -3 -37 -17 -47 -30 -10 -13 -21 -22 -25 -19 -4 2 -10
-3 -13 -12 -3 -8 -10 -12 -16 -9 -5 3 -10 2 -10 -3 0 -5 -8 -18 -17 -30 -10
-11 -25 -30 -33 -41 -8 -12 -30 -24 -50 -28 -19 -4 -37 -8 -40 -8 -47 -10
-150 -96 -150 -125 0 -5 -3 -10 -8 -10 -4 0 -13 -14 -20 -30 -8 -17 -19 -29
-25 -28 -19 3 -74 -29 -96 -58 -12 -15 -21 -23 -21 -18 0 4 -6 -1 -14 -11 -8
-11 -12 -23 -10 -26 2 -4 -3 -9 -11 -13 -8 -3 -15 -12 -15 -21 0 -8 -5 -15
-10 -15 -6 0 -9 -3 -9 -7 3 -19 -2 -34 -9 -29 -4 2 -9 -3 -10 -12 -1 -9 -4
-26 -6 -37 -2 -11 -5 -24 -5 -28 -1 -5 -5 -6 -10 -3 -5 3 -14 -1 -21 -10 -8
-8 -16 -11 -19 -5 -3 5 -13 11 -21 13 -8 2 -21 9 -28 16 -8 7 -18 10 -23 7 -5
-4 -9 -1 -9 4 0 6 -3 10 -8 9 -4 0 -29 9 -57 22 -27 13 -60 25 -73 26 -30 4
-82 27 -82 37 0 5 -4 6 -8 3 -5 -3 -14 4 -22 14 -8 10 -17 17 -22 14 -4 -3 -8
2 -8 10 0 9 -4 16 -10 16 -5 0 -10 7 -10 15 0 17 -9 19 -28 6 -11 -7 -10 -9 3
-15 9 -3 13 -10 10 -16 -3 -6 0 -13 8 -16 14 -5 31 -39 28 -56 -1 -5 3 -8 7
-8 5 0 9 -6 9 -12 1 -22 8 -43 16 -49 4 -3 9 -15 10 -27 0 -11 5 -18 9 -16 4
3 8 -3 8 -13 0 -11 4 -23 9 -28 5 -6 18 -26 29 -46 37 -67 47 -82 65 -101 18
-19 23 -68 8 -83 -5 -6 -12 -26 -16 -45 -7 -41 -8 -47 -22 -80 -6 -14 -14 -44
-18 -67 -4 -24 -11 -43 -16 -43 -6 0 -7 -4 -4 -10 3 -5 -1 -10 -9 -10 -9 0
-16 -4 -16 -9 0 -9 -38 -24 -54 -22 -5 1 -12 -3 -17 -10 -4 -7 -35 -13 -75
-14 -38 -1 -67 -6 -64 -11 3 -5 8 -8 13 -6 4 1 7 -2 7 -7 0 -4 20 -16 45 -25
25 -10 43 -21 40 -26 -3 -4 4 -6 15 -3 12 3 20 0 20 -6 0 -7 5 -9 10 -6 6 3
10 -2 10 -12 0 -15 2 -16 11 -3 7 11 9 6 5 -20 -5 -36 -13 -75 -16 -75 -1 0
-3 -36 -4 -80 -2 -44 -5 -80 -6 -80 -6 0 -11 -54 -13 -148 -1 -59 2 -107 6
-107 19 0 -33 -38 -83 -60 -30 -13 -62 -30 -71 -37 -8 -7 -19 -13 -22 -13 -4
0 -15 -8 -25 -18 -38 -35 -63 -52 -76 -52 -8 0 -16 -5 -18 -11 -2 -6 -24 -12
-49 -13 -25 -1 -51 -6 -59 -11 -9 -5 -11 -4 -6 3 4 7 1 12 -8 12 -25 0 -18
-19 12 -33 15 -6 38 -24 52 -39 13 -16 28 -28 32 -28 4 0 20 -12 35 -28 16
-15 35 -28 43 -30 8 -2 17 -7 20 -11 4 -7 33 -21 53 -26 4 -2 10 -4 15 -5 4
-1 10 -2 15 -1 4 0 7 -4 7 -9 0 -6 11 -10 24 -10 14 0 27 -4 31 -10 3 -5 12
-6 21 -3 22 8 52 -28 44 -52 -4 -11 -6 -23 -3 -27 2 -5 -1 -8 -6 -8 -6 0 -10
-3 -9 -7 1 -5 -3 -18 -10 -30 -7 -13 -9 -23 -5 -23 4 0 2 -4 -4 -8 -7 -4 -14
-19 -15 -32 -2 -14 -6 -27 -10 -31 -4 -3 -10 -21 -12 -40 -3 -18 -6 -35 -7
-36 -1 -2 -3 -7 -4 -13 -1 -5 -4 -12 -5 -15 -1 -3 -4 -18 -5 -35 -1 -16 -4
-31 -5 -32 -1 -2 -3 -46 -4 -99 -1 -71 2 -96 11 -96 12 0 18 18 14 39 0 5 2 7
7 6 4 -1 24 14 45 35 20 20 44 37 52 37 18 0 115 60 115 71 0 5 7 9 17 9 9 0
13 3 10 7 -4 3 11 23 33 45 23 21 39 38 36 38 -3 0 6 12 19 26 13 14 27 35 30
45 10 29 34 23 74 -20 37 -40 108 -86 171 -111 19 -7 44 -22 56 -32 11 -10 26
-18 33 -18 7 0 10 -4 7 -9 -6 -8 9 -18 28 -19 5 0 12 -6 17 -14 5 -7 12 -13
16 -14 4 0 16 -4 26 -8 9 -5 24 -6 32 -3 8 4 17 2 21 -4 3 -6 11 -6 17 -1 16
12 98 16 106 5 11 -17 81 -65 81 -57 0 5 4 4 8 -3 4 -6 21 -14 37 -17 17 -2
32 -5 35 -7 3 -1 77 -3 166 -3 139 -1 163 -3 178 -18 10 -10 27 -20 39 -23 28
-6 97 -1 121 10 10 5 39 3 65 -3 25 -6 53 -11 61 -11 22 0 43 -5 58 -14 6 -5
12 -5 12 0 0 4 35 8 78 9 42 0 93 4 112 8 19 4 41 8 48 8 6 1 12 5 12 10 0 4
3 8 8 7 18 -3 51 14 45 24 -4 6 0 8 10 4 10 -4 16 -2 14 6 -1 8 16 13 53 15
67 3 145 9 145 12 0 1 13 4 30 6 16 3 35 10 42 16 7 5 16 7 22 4 5 -3 12 1 15
10 3 8 10 12 16 9 5 -3 10 -1 10 4 0 6 6 11 14 11 8 0 16 7 20 15 3 8 14 15
25 15 10 0 21 7 25 15 3 8 9 14 13 13 4 -1 17 2 28 8 11 6 27 10 35 9 8 0 17
3 20 7 3 4 15 9 25 11 32 5 132 57 160 82 14 13 25 21 25 17 0 -4 16 15 35 42
19 27 35 58 35 68 0 10 4 18 10 18 5 0 7 6 4 14 -3 7 2 20 10 29 8 8 13 17 10
20 -3 2 7 7 21 11 14 4 25 11 25 16 0 6 6 10 13 10 7 0 19 10 27 21 8 12 20
27 27 34 7 7 9 15 6 19 -4 3 -1 6 5 6 13 0 53 84 51 107 -1 3 6 10 14 14 8 5
13 20 12 34 -2 14 0 25 5 25 5 0 7 8 6 18 -3 16 2 32 25 87 4 11 14 40 20 65
7 25 13 47 14 50 6 16 19 96 17 103 -1 4 2 7 6 7 4 0 4 27 -2 59 -8 50 -7 61
7 76 9 9 17 21 17 26 0 5 7 9 15 9 8 0 15 9 15 20 0 11 3 20 8 20 4 0 12 11
19 25 8 19 8 23 0 18 -8 -4 -7 -1 1 9 13 16 21 214 10 234 -3 5 -4 19 -3 32 1
12 -2 22 -6 22 -5 0 -6 7 -3 15 4 8 1 15 -5 15 -6 0 -10 3 -10 8 4 21 -4 36
-40 73 -33 35 -38 46 -33 73 3 17 6 43 5 58 0 15 3 26 6 24 3 -2 6 13 6 35 1
21 4 41 8 45 3 4 50 6 104 6 80 0 106 4 149 23 29 13 55 21 58 17 3 -3 6 0 6
6 0 6 10 14 23 18 12 3 30 13 40 22 9 8 17 11 17 7 0 -4 11 4 25 19 13 14 29
26 35 26 6 0 9 4 6 9 -4 5 4 7 16 3 14 -3 19 -1 14 6 -3 6 2 12 11 15 10 2
-10 3 -45 2 -34 -1 -65 1 -67 5 -3 5 -13 7 -23 5 -9 -1 -22 1 -28 6 -6 5 -25
9 -42 11 -18 1 -32 6 -32 11 0 4 -4 6 -8 3 -4 -2 -46 4 -92 14 -46 10 -88 16
-92 14 -4 -3 -8 -2 -8 3 0 4 -15 8 -32 7 -43 -1 -52 22 -22 56 79 87 103 118
97 123 -3 4 -2 7 3 7 6 0 23 27 39 60 15 32 33 56 38 53 6 -3 7 -1 4 4 -6 10
88 115 96 107 2 -2 11 12 20 31 20 43 6 54 -23 18 -12 -16 -25 -28 -28 -28 -4
0 -20 -13 -36 -28 -16 -15 -34 -27 -40 -27 -6 0 -24 -7 -41 -16 -16 -8 -63
-17 -105 -19 -41 -2 -77 -5 -80 -6 -3 -1 -8 -1 -11 -1 -4 1 -21 -3 -38 -8 -37
-10 -62 8 -56 42 4 21 6 71 5 111 -1 9 -5 17 -9 17 -4 0 -8 6 -9 13 -1 19 -10
72 -12 72 -1 0 -4 14 -6 30 -3 17 -10 48 -16 70 -15 52 -13 43 -22 94 -9 45
-34 114 -36 96z"/>
<path d="M645 3180 c3 -5 10 -10 16 -10 5 0 9 5 9 10 0 6 -7 10 -16 10 -8 0
-12 -4 -9 -10z"/>
</g>
</svg>
